<svg xmlns="http://www.w3.org/2000/svg" viewBox="0 0 71.99 59"><defs><style>.cls-1{fill:#bd1e2d;}</style></defs><g id="Layer_2" data-name="Layer 2"><g id="Layer_1-2" data-name="Layer 1"><path class="cls-1" d="M58.33,15.27,53,18,49.72,5.43,43,11.6,36.32,0l-6.7,11.6-6.7-6.17L19.62,18l-5.31-2.73v23h0v.17h0v.06h0v0l0,0,0,0v0h0v0l0,0,0,0,0,0h0l0,0h0l0,0h.41l21.2-10.92,21.2,10.92H58l0,0h0l0,0h0l0,0,0,0,0,0,0,0h0l0,0s0,0,0,0l0,0v0h0v-.06h0v-.17h0ZM24.92,22l4.37,2.26L17.17,35.4ZM16.46,34.4l3.88-14.77,3.58,1.84Zm9-13.38,4.42-7.66,5.61,5.16-5.33,4.91Zm10.85-1.74,5.1,4.7-5.1,2.62L31.22,24Zm.82-.76,5.61-5.16L47.17,21l-4.69,2.41ZM47.73,22,55.47,35.4,43.35,24.24Zm1-.51,3.58-1.84L56.18,34.4Zm8.5-4.38V34L53.31,19.1ZM49.11,7.5l2.9,11-3.85,2-4.57-7.92ZM36.32,2.23l5.86,10.14-5.86,5.4-5.86-5.4ZM23.53,7.5l5.52,5.09-4.57,7.92-3.85-2Zm-4.2,11.6L15.42,34V17.09ZM18.27,35.89,30.35,24.78l4.76,2.45Zm24-11.11L54.37,35.89,37.54,27.23Z"/><path class="cls-1" d="M0,45.44H5.18l3,8.61h.19l2.94-8.61H16.6V58.72H12.82v-8h-.19l-2.82,8h-3L4,50.76H3.78v8H0Zm18.74,0H29v3.08H22.52v2.22H28.6v2.55H22.52v2.35h6.62v3.08H18.74Zm12,0h6.69c3.25,0,5.4,1.82,5.4,4.53a4,4,0,0,1-3.34,4l-.14,0,3.91,4.67H38.9l-3.3-4.38h-1v4.38H30.74Zm6,6.36c1.24,0,2.17-.67,2.17-1.78s-.93-1.76-2.17-1.76h-2.1V51.8Zm7.23.28c0-4.12,3-6.9,7.24-6.9,3.56,0,6.36,2.11,6.77,5.23l-3.64.39a3.08,3.08,0,0,0-3-2.43,3.39,3.39,0,0,0-3.43,3.71,3.4,3.4,0,0,0,3.41,3.71,3.13,3.13,0,0,0,3.06-2.39l3.64.42C57.67,56.9,54.85,59,51.22,59,47,59,44,56.2,44,52.08Zm15.55,1.19V45.44h3.91v7.7c0,1.61.91,2.65,2.32,2.65a2.36,2.36,0,0,0,2.32-2.65v-7.7H72v7.83c0,3.5-2.52,5.73-6.23,5.73S59.53,56.77,59.53,53.27Z"/></g></g></svg>